<?xml version="1.0" standalone="no"?>
<!DOCTYPE svg PUBLIC "-//W3C//DTD SVG 20010904//EN"
 "http://www.w3.org/TR/2001/REC-SVG-20010904/DTD/svg10.dtd">
<svg version="1.0" xmlns="http://www.w3.org/2000/svg"
 width="567.000000pt" height="567.000000pt" viewBox="0 0 567.000000 567.000000"
 preserveAspectRatio="xMidYMid meet">
<metadata>
Created by potrace 1.14, written by Peter Selinger 2001-2017
</metadata>
<g transform="translate(0.000000,567.000000) scale(0.100000,-0.100000)"
fill="#000000" stroke="none">
<path d="M2425 5662 c-14 -2 -25 -18 -37 -55 -16 -47 -16 -59 -3 -132 8 -44
23 -114 33 -155 14 -55 16 -79 9 -89 -6 -7 -116 -64 -244 -127 -139 -68 -233
-119 -233 -128 0 -7 -8 -16 -18 -18 -13 -4 -18 1 -19 15 -1 11 -7 23 -14 27
-7 5 -10 23 -7 44 2 20 1 36 -2 36 -4 0 -6 10 -6 23 1 16 -4 22 -18 20 -13 -1
-15 2 -7 10 6 6 11 16 11 22 0 6 -4 5 -8 -2 -5 -8 -13 -9 -22 -3 -13 8 -13 10
-1 10 11 0 10 4 -4 14 -11 8 -25 12 -32 9 -17 -7 -17 -30 0 -36 8 -4 7 -6 -3
-6 -8 -1 0 -10 19 -22 27 -16 31 -23 20 -30 -8 -5 -9 -9 -3 -9 7 0 14 -9 17
-20 3 -11 1 -20 -4 -20 -4 0 -6 -7 -3 -15 4 -8 11 -12 18 -8 6 4 4 -2 -4 -12
-8 -10 -10 -16 -3 -12 9 6 12 -5 10 -40 -2 -38 -6 -47 -19 -45 -12 2 -16 -3
-13 -18 3 -18 1 -19 -17 -9 -12 7 -18 7 -14 1 3 -6 0 -13 -6 -15 -10 -4 -10
-6 0 -6 6 -1 12 -5 12 -10 0 -4 -10 -7 -23 -6 -15 2 -24 -2 -24 -11 0 -11 3
-11 16 -1 14 11 14 10 2 -6 -8 -10 -20 -16 -27 -13 -8 3 -20 -4 -27 -14 -8
-11 -16 -17 -20 -14 -3 3 -4 -6 -3 -20 2 -14 -1 -26 -5 -26 -5 0 -9 5 -9 11 0
5 -5 7 -10 4 -6 -4 -8 -11 -5 -16 4 -5 1 -9 -5 -9 -6 0 -9 -4 -6 -9 3 -5 -2
-15 -12 -22 -15 -13 -16 -12 -4 3 10 12 10 18 1 24 -7 4 -10 3 -6 -2 8 -13
-20 -47 -32 -39 -6 3 -11 1 -11 -4 0 -24 -38 -9 -75 30 -90 92 -150 106 -69
16 65 -72 72 -96 40 -124 -14 -12 -32 -26 -39 -30 -7 -4 -18 -21 -25 -36 l-12
-29 -71 69 c-77 76 -216 152 -238 130 -6 -6 -11 -16 -11 -21 1 -21 46 -63 104
-97 67 -39 141 -116 148 -154 4 -19 -2 -34 -24 -57 -16 -17 -36 -45 -45 -62
-9 -17 -19 -33 -22 -36 -4 -3 -34 -50 -68 -106 -77 -125 -121 -248 -124 -344
-1 -49 -7 -74 -17 -83 -9 -6 -13 -7 -9 -1 4 7 -23 20 -71 34 -42 13 -132 46
-199 72 -192 75 -252 67 -164 -21 43 -43 126 -86 187 -96 22 -4 73 -26 114
-49 41 -24 84 -46 94 -50 26 -9 19 -13 -43 -19 -30 -3 -58 -10 -64 -16 -19
-19 2 -39 47 -45 32 -5 44 -11 39 -19 -4 -7 -10 -40 -14 -75 -4 -35 -11 -68
-16 -73 -6 -6 -31 5 -68 30 -33 22 -89 50 -126 61 -37 11 -74 27 -82 35 -26
25 -60 28 -84 5 -38 -34 -29 -41 149 -110 26 -10 80 -43 119 -74 40 -31 76
-56 81 -56 14 0 7 -117 -12 -215 -11 -59 -15 -130 -14 -223 3 -171 8 -215 35
-326 21 -83 21 -90 5 -116 -9 -16 -16 -48 -16 -73 0 -49 0 -49 -72 -62 -28 -4
-38 -11 -38 -24 0 -20 35 -31 97 -31 35 0 45 -13 67 -87 8 -26 -10 -38 -91
-59 -74 -19 -176 -71 -210 -106 l-27 -28 40 -2 c97 -4 102 -3 211 40 96 37
113 39 113 12 0 -12 10 -25 25 -32 27 -12 56 -78 81 -186 20 -86 74 -223 140
-353 30 -58 54 -110 54 -115 -1 -5 -45 -58 -100 -119 -54 -60 -97 -111 -96
-113 6 -5 180 101 214 130 18 15 35 28 38 28 2 0 51 -37 107 -83 135 -110 296
-227 313 -227 22 0 17 -29 -16 -98 -32 -69 -29 -69 46 -5 57 48 61 50 66 27 2
-9 94 -62 223 -129 121 -62 233 -120 249 -128 29 -16 51 -14 41 3 -3 4 3 14
12 21 10 8 14 9 10 2 -4 -6 -3 -15 3 -18 7 -4 7 -11 2 -18 -7 -10 -43 -98 -48
-117 0 -3 -4 -14 -9 -25 -4 -11 -21 -51 -36 -90 -32 -79 -33 -79 77 70 l66 90
-6 -45 c-3 -25 -8 -74 -11 -110 -4 -36 -8 -70 -10 -77 -3 -8 10 -15 33 -19 20
-3 45 -8 54 -11 10 -2 18 -2 18 1 0 2 9 50 20 106 11 56 20 117 20 136 0 38
-1 38 34 24 27 -10 86 -16 231 -25 50 -3 101 -7 115 -10 29 -7 201 -7 247 -1
33 5 91 24 153 49 19 8 50 17 68 20 29 6 34 3 43 -19 5 -15 12 -58 15 -98 7
-77 28 -119 39 -75 14 62 21 117 18 144 -2 17 -5 43 -6 59 -2 31 2 33 90 55
36 10 33 16 62 -121 11 -47 23 -94 29 -103 8 -15 11 -13 21 15 16 47 14 123
-5 169 -26 66 -10 69 27 6 63 -107 101 -197 160 -375 62 -189 60 -187 137
-185 36 0 38 4 18 43 -14 28 -45 128 -53 172 -5 29 -25 96 -48 160 -9 24 -14
52 -12 62 3 10 2 18 -2 18 -4 0 -8 16 -9 36 -1 20 -6 42 -12 49 -5 6 -7 15 -3
18 3 4 1 7 -6 7 -9 0 -12 16 -9 55 2 32 -1 55 -7 55 -5 0 -4 4 4 9 9 6 10 10
2 16 -9 5 -9 10 0 21 9 11 9 14 -1 14 -7 0 -10 7 -6 15 4 11 1 15 -10 13 -11
-2 -17 6 -20 25 -1 15 2 27 7 27 5 0 9 -4 9 -10 0 -5 5 -10 11 -10 5 0 7 5 3
11 -5 8 -1 8 14 0 31 -17 53 -14 50 6 -2 11 2 17 11 15 12 -3 12 0 1 12 -12
15 -7 21 14 17 5 -1 6 5 3 14 -4 9 -1 15 9 15 8 0 13 4 10 9 -8 12 18 32 42
34 14 1 19 7 17 24 -2 17 1 21 10 13 9 -7 16 -5 26 7 9 11 10 14 2 9 -7 -4
-13 -2 -13 3 0 6 8 11 17 11 9 0 13 3 10 7 -4 3 1 12 11 20 9 8 11 12 5 8 -9
-4 -11 -1 -7 10 5 13 9 13 22 3 13 -11 14 -10 7 11 -5 16 -4 21 4 17 10 -6 15
5 12 26 0 3 7 5 17 4 9 -1 39 -32 67 -69 43 -59 53 -67 82 -67 29 0 33 3 34
28 0 15 2 45 4 66 2 35 -3 45 -41 85 -24 25 -44 48 -44 51 0 3 28 39 62 81 35
42 71 91 82 110 18 32 19 33 27 12 4 -12 10 -39 12 -60 5 -41 26 -93 37 -93 5
0 16 -29 25 -65 20 -72 24 -77 77 -92 91 -27 171 40 183 153 16 143 14 163
-32 298 -24 71 -48 137 -54 147 -5 10 -10 29 -11 43 -1 13 -5 23 -8 21 -8 -5
-41 86 -50 137 -4 20 -3 35 1 32 5 -3 9 0 9 6 0 6 5 8 13 4 9 -6 9 -4 -1 8
-10 13 -10 18 -1 24 8 5 9 3 4 -6 -6 -9 -4 -11 4 -6 7 5 10 14 7 22 -3 8 -1
14 5 14 6 0 7 5 4 10 -3 6 0 10 7 10 9 0 9 3 -2 10 -10 6 -11 10 -2 10 6 0 12
12 12 26 0 17 11 36 28 51 19 16 21 22 8 17 -13 -5 -17 -4 -12 4 4 7 14 12 22
12 10 0 12 5 7 13 -10 16 -13 38 -4 32 4 -2 8 2 8 10 0 8 -4 12 -8 10 -8 -6
-7 15 3 30 3 6 7 37 9 70 1 33 7 63 13 67 8 5 7 8 -1 8 -7 0 -13 5 -13 11 0 5
5 7 10 4 9 -6 14 10 13 42 -1 7 3 11 7 8 4 -2 8 19 9 48 2 29 3 57 4 64 0 8 8
8 24 2 16 -6 22 -5 18 1 -3 6 -1 10 5 10 6 0 8 5 4 13 -6 9 -4 9 8 -1 13 -10
18 -10 24 -1 5 8 3 9 -6 4 -8 -5 -11 -4 -7 2 4 6 18 10 33 10 14 0 31 6 37 13
9 10 9 11 -2 5 -11 -6 -13 -4 -8 9 6 16 1 17 -52 14 -33 -1 -59 -1 -59 2 0 3
0 10 -2 15 -6 33 3 171 12 176 6 4 5 9 -3 12 -10 4 -10 6 -1 6 8 1 12 20 12
60 0 38 -4 61 -12 64 -9 4 -8 6 2 6 11 1 12 3 3 9 -7 5 -12 43 -14 107 -1 61
-6 103 -13 107 -6 5 0 8 14 8 31 0 134 32 178 55 17 9 32 23 32 31 0 11 -20
14 -105 13 -57 0 -109 3 -116 6 -6 4 -9 18 -6 32 3 16 -1 27 -10 30 -12 5 -12
7 -1 14 10 7 9 9 -5 9 -10 0 -15 5 -12 10 3 6 1 10 -6 10 -7 0 -9 3 -6 7 4 3
1 13 -6 21 -10 13 -9 15 3 8 8 -4 7 -1 -3 7 -14 11 -15 16 -5 20 10 4 10 6 1
6 -8 1 -13 15 -13 36 0 21 -5 35 -12 35 -10 0 -10 2 0 9 8 4 12 12 10 17 -1 5
32 32 75 61 68 44 114 78 82 61 -5 -3 -28 -9 -50 -12 -22 -4 -48 -9 -58 -12
-10 -3 -33 -3 -50 0 -27 5 -32 11 -34 37 -1 17 -8 38 -15 47 -10 12 -10 14 -1
8 9 -5 11 -2 7 8 -3 9 -12 12 -22 8 -15 -5 -16 -4 -2 13 9 11 10 16 3 11 -10
-5 -13 3 -13 28 0 31 -3 36 -22 36 -18 0 -20 2 -8 10 12 8 11 13 -8 33 -12 13
-22 29 -22 35 0 7 -6 12 -12 12 -10 0 -9 3 1 9 8 5 9 10 3 12 -12 5 -19 80 -8
97 4 7 3 12 -2 12 -6 0 -13 7 -16 16 -4 10 -2 13 7 8 9 -6 9 -5 0 8 -7 8 -10
18 -6 21 3 4 -2 7 -12 7 -14 0 -15 3 -5 15 7 9 10 18 6 22 -3 3 -6 1 -6 -5 0
-7 -4 -12 -10 -12 -5 0 -6 7 -3 17 4 11 3 14 -5 9 -8 -5 -12 2 -12 20 0 15 -3
24 -7 21 -6 -6 -51 62 -162 245 -41 67 -50 98 -31 98 6 0 10 4 10 10 0 5 29
47 64 93 61 79 63 83 40 85 -18 1 -23 -2 -18 -11 6 -9 5 -9 -7 0 -12 10 -32 4
-105 -31 l-89 -44 -72 76 c-40 42 -73 80 -73 84 0 4 -9 8 -19 8 -10 0 -22 7
-25 16 -3 8 -10 12 -16 9 -5 -3 -10 0 -10 8 0 8 -7 18 -16 21 -12 5 -14 3 -8
-7 5 -7 2 -5 -7 5 -9 9 -19 14 -23 11 -3 -4 -6 -1 -6 6 0 7 -4 10 -9 7 -4 -3
-17 4 -27 17 l-19 22 23 -19 c12 -11 22 -15 22 -9 0 13 -39 33 -67 36 -12 0
-19 5 -17 9 3 4 0 8 -6 8 -6 0 -8 5 -4 13 5 7 0 6 -11 -3 -17 -14 -18 -13 -12
2 3 10 2 20 -3 23 -6 4 -10 1 -10 -6 0 -7 -9 -3 -21 9 -12 13 -17 27 -12 35
11 18 13 38 2 31 -5 -3 -9 0 -9 5 0 6 4 11 9 11 13 0 20 49 8 57 -5 3 -2 10 7
15 13 7 14 13 6 23 -8 9 -8 15 0 20 16 10 13 65 -4 65 -8 0 -18 -5 -21 -10 -4
-6 -10 -8 -15 -5 -14 9 -24 -17 -28 -70 -2 -27 -7 -51 -13 -53 -5 -2 -9 -8 -9
-13 0 -6 6 -7 13 -3 8 5 8 3 -2 -9 -7 -9 -18 -14 -25 -10 -6 4 -4 -2 4 -12 9
-11 10 -16 3 -11 -8 4 -13 2 -13 -5 0 -9 -3 -9 -14 0 -11 9 -16 9 -22 0 -4 -8
-3 -9 4 -5 7 4 12 3 12 -3 0 -5 -9 -9 -19 -8 -12 1 -17 6 -13 16 4 10 1 12 -8
6 -9 -5 -11 -4 -6 4 9 14 -12 43 -25 35 -5 -3 -9 1 -9 8 0 9 -3 9 -10 -2 -6
-10 -10 -11 -10 -2 0 6 -12 12 -26 12 -14 0 -23 4 -19 10 9 14 -9 12 -24 -2
-10 -11 -12 -10 -11 2 4 30 0 39 -17 33 -11 -4 -14 -3 -9 5 4 7 2 12 -5 12 -8
0 -8 4 1 15 11 13 10 14 -2 10 -8 -3 -21 2 -29 12 -13 16 -12 17 4 4 15 -12
17 -12 11 3 -4 11 -14 16 -25 13 -10 -3 -18 -2 -17 2 1 3 -4 17 -10 31 -6 14
-11 22 -11 18 -1 -4 -12 4 -26 18 -14 14 -30 22 -35 19 -6 -3 -10 -1 -10 4 0
6 -7 11 -15 11 -8 0 -15 6 -15 13 0 8 -3 7 -10 -3 -8 -13 -10 -13 -15 0 -4 12
-22 14 -100 10 -60 -3 -95 -1 -95 5 0 6 -4 3 -10 -5 -5 -8 -12 -11 -16 -8 -8
8 -34 -14 -27 -24 2 -5 0 -8 -6 -8 -5 0 -12 6 -14 13 -4 9 -6 9 -6 -1 -1 -7
-5 -10 -11 -7 -5 3 -10 -1 -10 -10 0 -9 -4 -13 -10 -10 -9 5 -14 -6 -12 -25 0
-3 -11 -6 -26 -7 -27 0 -93 -10 -122 -18 -8 -2 -31 -7 -50 -10 -19 -3 -42 -8
-50 -10 -8 -3 -34 -7 -57 -10 l-43 -5 0 44 c0 48 -71 245 -105 289 -37 49 -46
-16 -20 -138 21 -98 29 -175 16 -154 -18 28 -42 130 -48 203 -3 38 -11 90 -17
115 -9 37 -15 45 -31 43z m1379 -390 c3 -5 -1 -9 -9 -9 -8 0 -12 4 -9 9 3 4 7
8 9 8 2 0 6 -4 9 -8z m-150 -140 c3 -5 -1 -9 -9 -9 -8 0 -12 4 -9 9 3 4 7 8 9
8 2 0 6 -4 9 -8z m-870 -366 c-5 -65 -3 -90 10 -114 12 -23 17 -71 20 -205 l4
-175 -34 -6 c-18 -4 -58 -27 -89 -52 -31 -26 -57 -45 -59 -43 -1 2 -12 24 -23
49 -11 25 -73 160 -137 301 -64 141 -116 261 -116 266 0 10 89 53 110 53 6 0
31 -11 55 -24 l45 -23 92 28 c136 41 129 44 122 -55z m-1044 25 c-5 -11 -15
-23 -21 -27 -6 -3 -3 5 6 20 20 30 30 35 15 7z m1849 -169 c-101 -189 -97
-184 -122 -168 -19 13 -26 12 -59 -4 -38 -18 -38 -18 -39 3 0 12 -2 33 -3 47
-2 14 1 36 6 49 5 15 5 28 0 33 -14 14 2 71 30 109 13 19 36 51 52 71 l27 38
80 -40 79 -40 -51 -98z m398 -164 c22 -29 52 -75 68 -103 15 -27 36 -62 46
-77 11 -15 30 -51 43 -80 15 -34 40 -67 66 -88 39 -31 70 -81 70 -110 0 -6
-17 -18 -37 -26 -21 -9 -68 -31 -105 -50 l-66 -33 -19 32 c-34 58 -63 126 -73
173 -12 51 -56 112 -111 153 l-37 27 56 117 c31 64 57 117 58 117 1 0 19 -24
41 -52z m-1633 -532 c141 -280 256 -519 256 -533 0 -21 -2 -23 -22 -12 -21 11
-502 353 -645 458 -34 25 -107 78 -162 116 -55 39 -99 75 -98 80 1 6 20 42 42
82 l40 72 65 7 c36 4 67 10 70 14 13 19 194 229 196 227 1 -1 117 -231 258
-511z m2321 -16 c3 -5 2 -10 -4 -10 -5 0 -13 5 -16 10 -3 6 -2 10 4 10 5 0 13
-4 16 -10z m-2945 -305 c306 -208 677 -461 711 -484 51 -36 68 -71 62 -120 -5
-38 -8 -41 -37 -42 -17 0 -130 -2 -251 -4 -121 -2 -352 -6 -513 -9 l-293 -5 5
82 c2 45 5 90 5 99 1 10 19 25 45 36 38 17 46 27 64 73 11 30 22 90 26 134 3
44 16 114 29 155 12 41 22 81 21 88 -1 6 -2 19 -3 27 0 8 -7 15 -15 15 -13 0
-28 44 -18 54 6 7 2 9 162 -99z m2525 -72 c3 -35 4 -63 1 -63 -3 0 -18 18 -32
40 l-27 41 23 24 c13 14 25 24 26 22 1 -1 5 -30 9 -64z m-107 -157 c12 -43 33
-87 48 -103 23 -25 61 -76 185 -250 l30 -43 -78 -1 c-95 -2 -408 1 -444 4 -39
4 -94 51 -125 106 -17 32 -37 54 -56 62 -25 10 -29 17 -25 38 3 14 1 33 -4 43
-12 21 -3 26 52 29 34 2 61 14 118 52 179 120 243 156 260 147 9 -4 26 -42 39
-84z m239 -585 c7 -1 9 -13 6 -33 -5 -31 -10 -79 -12 -105 -1 -7 -7 -13 -15
-13 -16 0 -79 -50 -73 -57 3 -2 0 -23 -5 -46 -5 -23 -11 -51 -14 -62 -2 -11
-16 -76 -30 -145 -15 -68 -23 -125 -18 -127 5 -2 23 -12 41 -22 24 -15 30 -25
26 -40 -3 -12 -8 -21 -12 -21 -15 0 -196 132 -197 143 0 7 6 38 13 70 14 64 8
111 -26 191 -26 59 -21 114 13 166 14 22 26 53 26 69 0 29 2 30 48 33 40 3
193 2 229 -1z m-2009 -94 c-17 -29 -36 -61 -42 -72 -87 -157 -83 -153 -339
-347 -133 -101 -285 -215 -337 -254 l-95 -72 -8 30 c-6 24 -4 35 11 52 53 60
53 65 21 167 -31 98 -45 154 -55 217 -8 50 -15 61 -68 110 -44 40 -45 44 -51
114 -4 40 -8 80 -11 88 -3 13 53 15 453 18 252 2 458 4 459 5 2 1 23 1 47 -1
l45 -4 -30 -51z m1329 -497 c96 -66 179 -120 185 -120 5 0 7 -12 4 -27 -8 -45
-19 -120 -31 -224 -3 -25 -7 -54 -9 -65 -2 -10 -7 -46 -11 -79 -4 -33 -10 -78
-13 -100 l-7 -39 -62 139 c-34 77 -107 241 -163 364 -55 123 -100 232 -100
241 0 19 9 30 23 30 5 0 88 -54 184 -120z m-1177 74 c-11 -27 -421 -977 -424
-981 -1 -1 -33 39 -70 89 -65 87 -68 93 -58 122 30 81 210 468 229 492 12 15
25 41 29 58 9 43 12 46 155 147 71 49 131 94 135 100 12 20 15 2 4 -27z m819
-554 c67 -162 126 -304 131 -315 5 -11 34 -81 65 -155 l55 -135 -24 -22 c-25
-21 -31 -21 -114 -1 -21 5 -105 -18 -155 -44 -32 -16 -68 -33 -80 -37 l-22 -9
-2 532 c-1 442 1 527 12 506 7 -14 68 -158 134 -320z m750 198 c31 -29 57 -56
59 -60 2 -4 -11 -36 -29 -73 -24 -47 -38 -65 -53 -66 -12 0 -32 -2 -45 -5
l-23 -4 7 92 c4 51 9 100 10 108 2 8 4 25 4 38 1 12 4 22 8 22 3 0 31 -24 62
-52z m-1285 -23 c5 -19 -10 -57 -63 -158 -37 -72 -101 -195 -141 -272 -40 -77
-76 -144 -81 -149 -16 -17 -10 19 10 60 35 73 111 236 111 239 0 1 22 49 49
106 26 57 59 128 71 156 24 55 34 60 44 18z m40 -343 c-2 -26 -6 -56 -8 -67
-3 -11 -8 -49 -11 -85 -4 -36 -9 -76 -11 -90 -2 -14 -7 -108 -10 -210 -4 -102
-8 -187 -10 -189 -2 -2 -37 9 -79 24 -73 27 -75 28 -75 62 0 19 4 42 9 51 5
10 3 47 -4 91 -7 41 -12 83 -10 93 4 17 30 68 113 218 14 25 39 71 55 102 17
31 34 55 38 52 4 -2 5 -25 3 -52z"/>
<path d="M4065 911 c-3 -5 0 -13 6 -17 7 -4 9 -3 5 4 -3 5 0 13 6 15 9 4 10 6
1 6 -6 1 -14 -3 -18 -8z"/>
<path d="M3987 733 c-13 -12 -7 -75 12 -121 10 -26 33 -91 50 -144 17 -54 53
-144 80 -200 27 -57 54 -123 61 -148 6 -25 16 -62 21 -82 7 -27 15 -38 29 -38
10 0 21 4 24 9 6 9 -28 141 -44 169 -49 90 -143 365 -155 454 -4 29 -16 60
-31 78 -26 31 -35 35 -47 23z"/>
</g>
</svg>
